<svg width="169" height="51" viewBox="0 0 169 51" fill="none" xmlns="http://www.w3.org/2000/svg">
<g clip-path="url(#clip0_1440_1242)">
<path fill-rule="evenodd" clip-rule="evenodd" d="M162.498 50.564H6.2523C2.80639 50.564 0 47.746 0 44.314V6.81396C0 3.36945 2.80639 0.563965 6.2523 0.563965H162.498C165.941 0.563965 168.75 3.36945 168.75 6.81396V44.314C168.75 47.746 165.941 50.564 162.498 50.564Z" fill="black"/>
<path fill-rule="evenodd" clip-rule="evenodd" d="M162.498 1.56459C165.388 1.56459 167.753 3.92431 167.753 6.81396V44.314C167.753 47.2036 165.403 49.5633 162.498 49.5633H6.2523C3.36209 49.5633 0.996518 47.2036 0.996518 44.314V6.81396C0.996518 3.92431 3.34656 1.56459 6.2523 1.56459H162.498ZM162.498 0.563965H6.2523C2.80639 0.563965 0 3.38192 0 6.81396V44.314C0 47.7585 2.80639 50.564 6.2523 50.564H162.498C165.941 50.564 168.75 47.7585 168.75 44.314V6.81396C168.75 3.38192 165.941 0.563965 162.498 0.563965Z" fill="black"/>
<path d="M88.898 17.1039C87.7711 17.1039 86.8211 16.708 86.0698 15.9287C85.3248 15.1712 84.9088 14.127 84.9274 13.0609C84.9274 11.9231 85.3124 10.9599 86.0698 10.1962C86.818 9.41688 87.768 9.021 88.8949 9.021C90.0093 9.021 90.9593 9.41688 91.723 10.1962C92.4804 10.9848 92.8654 11.9481 92.8654 13.0609C92.853 14.2018 92.468 15.165 91.723 15.9256C90.9748 16.7111 90.0249 17.1039 88.898 17.1039ZM55.3673 17.1039C54.2653 17.1039 53.3091 16.7143 52.5268 15.9443C51.7507 15.1775 51.3564 14.208 51.3564 13.064C51.3564 11.92 51.7507 10.9505 52.5268 10.1837C53.2936 9.41376 54.2497 9.02411 55.3673 9.02411C55.9137 9.02411 56.4446 9.13322 56.9537 9.35454C57.4535 9.56962 57.8602 9.86264 58.1613 10.2211L58.2358 10.3115L57.3945 11.1407L57.3076 11.0378C56.8326 10.4705 56.1962 10.1931 55.3549 10.1931C54.6036 10.1931 53.9486 10.4611 53.4085 10.9911C52.8652 11.5241 52.5889 12.2224 52.5889 13.0671C52.5889 13.9119 52.8652 14.6101 53.4085 15.1432C53.9486 15.6731 54.6036 15.9412 55.3549 15.9412C56.1558 15.9412 56.8295 15.6731 57.3541 15.1432C57.6646 14.8315 57.8571 14.3951 57.9254 13.8433H55.2276V12.6775H59.0833L59.0988 12.7835C59.1268 12.9798 59.1547 13.1825 59.1547 13.3695C59.1547 14.4449 58.8318 15.3146 58.1923 15.9568C57.4659 16.7174 56.516 17.1039 55.3673 17.1039ZM99.9496 16.9387H98.7606L95.1192 11.0877L95.1502 12.1413V16.9356H93.9612V9.18933H95.3179L95.3551 9.24855L98.7793 14.7598L98.7482 13.7093V9.18933H99.9496V16.9387ZM79.9635 16.9387H78.759V10.3552H76.6697V9.18933H82.0496V10.3552H79.9604V16.9387H79.9635ZM75.6887 16.9387H74.4873V9.18933H75.6887V16.9387ZM68.9367 16.9387H67.7353V10.3552H65.646V9.18933H71.0259V10.3552H68.9367V16.9387ZM64.8854 16.9262H60.2785V9.18933H64.8854V10.3552H61.483V12.4811H64.5532V13.6345H61.483V15.7604H64.8854V16.9262ZM86.9515 15.1276C87.4886 15.6669 88.1405 15.9381 88.898 15.9381C89.6772 15.9381 90.3136 15.6731 90.8444 15.1276C91.3722 14.5977 91.6391 13.9025 91.6391 13.064C91.6391 12.2255 91.3722 11.5272 90.8475 11.0004C90.3105 10.4611 89.6554 10.1899 88.9011 10.1899C88.1219 10.1899 87.4855 10.4549 86.9577 11.0004C86.43 11.5303 86.163 12.2255 86.163 13.064C86.163 13.9025 86.4268 14.6008 86.9515 15.1276Z" fill="white"/>
<path fill-rule="evenodd" clip-rule="evenodd" d="M84.816 27.7585C81.8823 27.7585 79.5043 29.9935 79.5043 33.0764C79.5043 36.1313 81.8979 38.3944 84.816 38.3944C87.7497 38.3944 90.1277 36.1438 90.1277 33.0764C90.1277 29.9935 87.7497 27.7585 84.816 27.7585ZM84.816 36.2872C83.211 36.2872 81.8296 34.953 81.8296 33.064C81.8296 31.1469 83.2141 29.8408 84.816 29.8408C86.421 29.8408 87.8025 31.1469 87.8025 33.064C87.8056 34.9655 86.421 36.2872 84.816 36.2872ZM73.2272 27.7585C70.2935 27.7585 67.9155 29.9935 67.9155 33.0764C67.9155 36.1313 70.309 38.3944 73.2272 38.3944C76.1609 38.3944 78.5389 36.1438 78.5389 33.0764C78.5389 29.9935 76.1578 27.7585 73.2272 27.7585ZM73.2272 36.2872C71.6222 36.2872 70.2408 34.953 70.2408 33.064C70.2408 31.1469 71.6253 29.8408 73.2272 29.8408C74.8322 29.8408 76.2137 31.1469 76.2137 33.064C76.2137 34.9655 74.8322 36.2872 73.2272 36.2872ZM59.4374 29.3825V31.6332H64.8173C64.6528 32.8956 64.2368 33.8277 63.6004 34.4667C62.8119 35.2585 61.5949 36.1188 59.4498 36.1188C56.1436 36.1188 53.5576 33.438 53.5576 30.1182C53.5576 26.7984 56.1436 24.1176 59.4498 24.1176C61.2348 24.1176 62.5356 24.8252 63.501 25.7292L65.0905 24.1332C63.7494 22.8426 61.9644 21.8545 59.4622 21.8545C54.9266 21.8545 51.1206 25.564 51.1206 30.1057C51.1206 34.66 54.9235 38.357 59.4622 38.357C61.9116 38.357 63.7494 37.5527 65.2023 36.0378C66.6831 34.5509 67.1519 32.453 67.1519 30.7604C67.1519 30.2335 67.1115 29.7597 67.0277 29.3576H59.4343C59.4374 29.3545 59.4374 29.3825 59.4374 29.3825ZM115.842 31.1344C115.398 29.9405 114.057 27.746 111.306 27.746C108.58 27.746 106.314 29.9 106.314 33.064C106.314 36.0503 108.556 38.3819 111.57 38.3819C113.991 38.3819 115.401 36.895 115.981 36.0222L114.184 34.8127C113.588 35.7011 112.759 36.284 111.582 36.284C110.393 36.284 109.561 35.7416 109.009 34.6724L116.09 31.7267C116.09 31.7298 115.842 31.1344 115.842 31.1344ZM108.621 32.9112C108.565 30.857 110.21 29.8127 111.387 29.8127C112.315 29.8127 113.088 30.271 113.352 30.938L108.621 32.9112ZM102.868 38.064H105.193V22.4405H102.868V38.064ZM99.0498 28.9399H98.966C98.4413 28.3133 97.4448 27.746 96.172 27.746C93.5301 27.746 91.0963 30.0808 91.0963 33.0796C91.0963 36.0658 93.5177 38.3726 96.172 38.3726C97.4293 38.3726 98.4413 37.8021 98.966 37.1631H99.0498V37.9268C99.0498 39.9561 97.9695 41.0503 96.2279 41.0503C94.8029 41.0503 93.9182 40.0216 93.5581 39.1612L91.5371 40.0091C92.1176 41.4118 93.6667 43.1481 96.2248 43.1481C98.9505 43.1481 101.26 41.5365 101.26 37.6057V28.064H99.0622V28.9399C99.0653 28.9399 99.0498 28.9399 99.0498 28.9399ZM96.38 36.2872C94.775 36.2872 93.4339 34.9405 93.4339 33.0796C93.4339 31.203 94.775 29.8439 96.38 29.8439C97.9695 29.8439 99.2019 31.2186 99.2019 33.0796C99.2174 34.9405 97.9726 36.2872 96.38 36.2872ZM126.729 22.4405H121.169V38.064H123.494V32.1475H126.732C129.306 32.1475 131.836 30.2741 131.836 27.3003C131.836 24.3264 129.315 22.4405 126.729 22.4405ZM126.797 29.9655H123.491V24.6039H126.797C128.539 24.6039 129.523 26.0471 129.523 27.2847C129.523 28.5097 128.526 29.9655 126.797 29.9655ZM141.155 27.7304C139.466 27.7304 137.725 28.4817 137.004 30.1182L139.066 30.9786C139.51 30.1182 140.323 29.8252 141.183 29.8252C142.388 29.8252 143.604 30.5484 143.632 31.8389V32.0041C143.216 31.7672 142.304 31.4056 141.211 31.4056C138.985 31.4056 136.728 32.6276 136.728 34.9187C136.728 37.0166 138.554 38.3632 140.587 38.3632C142.149 38.3632 143.008 37.6556 143.545 36.8358H143.629V38.0453H145.871V32.0602C145.871 29.2734 143.809 27.7304 141.155 27.7304ZM140.863 36.2872C140.103 36.2872 139.038 35.9131 139.038 34.953C139.038 33.7435 140.367 33.2853 141.5 33.2853C142.524 33.2853 143.008 33.5066 143.617 33.8121C143.449 35.2148 142.27 36.2747 140.863 36.2872ZM154.048 28.064L151.378 34.8408H151.294L148.528 28.064H146.026L150.177 37.5372L147.811 42.8021H150.232L156.618 28.064H154.048ZM133.118 38.064H135.443V22.4405H133.118V38.064Z" fill="white"/>
<path fill-rule="evenodd" clip-rule="evenodd" d="M12.989 9.98065C12.6289 10.3703 12.4209 10.9657 12.4209 11.745V39.3853C12.4209 40.1646 12.6289 40.76 13.0014 41.134L13.0977 41.2182L28.5204 25.7319V25.3859L13.0852 9.89648L12.989 9.98065Z" fill="url(#paint0_linear_1440_1242)"/>
<path fill-rule="evenodd" clip-rule="evenodd" d="M33.6514 30.9103L28.5073 25.7451V25.3835L33.6514 20.2183L33.7631 20.2868L39.8478 23.7594C41.5894 24.7444 41.5894 26.3716 39.8478 27.3691L33.7631 30.8417L33.6514 30.9103Z" fill="url(#paint1_linear_1440_1242)"/>
<path fill-rule="evenodd" clip-rule="evenodd" d="M33.764 30.8414L28.5083 25.564L12.9893 41.1469C13.5574 41.7579 14.5104 41.8264 15.5752 41.231L33.764 30.8414Z" fill="url(#paint2_linear_1440_1242)"/>
<path fill-rule="evenodd" clip-rule="evenodd" d="M33.764 20.2865L15.5752 9.91245C14.5104 9.30148 13.5543 9.38565 12.9893 9.99662L28.5083 25.564L33.764 20.2865Z" fill="url(#paint3_linear_1440_1242)"/>
<path opacity="0.2" fill-rule="evenodd" clip-rule="evenodd" d="M33.6522 30.729L15.5875 41.0345C14.5785 41.6174 13.6782 41.5768 13.0977 41.0469L13.0015 41.1436L13.0977 41.2277C13.6782 41.7545 14.5785 41.7982 15.5875 41.2153L33.7763 30.8412L33.6522 30.729Z" fill="black"/>
<path opacity="0.12" fill-rule="evenodd" clip-rule="evenodd" d="M39.8482 27.188L33.6362 30.7292L33.748 30.8414L39.8326 27.3688C40.705 26.8701 41.1334 26.2155 41.1334 25.564C41.0806 26.1625 40.6367 26.7298 39.8482 27.188Z" fill="black"/>
<path opacity="0.25" fill-rule="evenodd" clip-rule="evenodd" d="M15.575 10.0933L39.8484 23.94C40.637 24.3857 41.0809 24.9686 41.1492 25.564C41.1492 24.9125 40.7208 24.2579 39.8484 23.7592L15.575 9.91253C13.8334 8.91191 12.4209 9.74732 12.4209 11.7454V11.9262C12.4209 9.925 13.8334 9.10517 15.575 10.0933Z" fill="white"/>
</g>
<defs>
<linearGradient id="paint0_linear_1440_1242" x1="27.137" y1="11.4468" x2="2.41902" y2="18.0059" gradientUnits="userSpaceOnUse">
<stop stop-color="#00A0FF"/>
<stop offset="0.00657" stop-color="#00A1FF"/>
<stop offset="0.2601" stop-color="#00BEFF"/>
<stop offset="0.5122" stop-color="#00D2FF"/>
<stop offset="0.7604" stop-color="#00DFFF"/>
<stop offset="1" stop-color="#00E3FF"/>
</linearGradient>
<linearGradient id="paint1_linear_1440_1242" x1="42.119" y1="25.5643" x2="11.9968" y2="25.5643" gradientUnits="userSpaceOnUse">
<stop stop-color="#FFE000"/>
<stop offset="0.4087" stop-color="#FFBD00"/>
<stop offset="0.7754" stop-color="#FFA500"/>
<stop offset="1" stop-color="#FF9C00"/>
</linearGradient>
<linearGradient id="paint2_linear_1440_1242" x1="30.9061" y1="28.4356" x2="10.9527" y2="61.8812" gradientUnits="userSpaceOnUse">
<stop stop-color="#FF3A44"/>
<stop offset="1" stop-color="#C31162"/>
</linearGradient>
<linearGradient id="paint3_linear_1440_1242" x1="9.08141" y1="0.787441" x2="17.9835" y2="15.7248" gradientUnits="userSpaceOnUse">
<stop stop-color="#32A071"/>
<stop offset="0.0685" stop-color="#2DA771"/>
<stop offset="0.4762" stop-color="#15CF74"/>
<stop offset="0.8009" stop-color="#06E775"/>
<stop offset="1" stop-color="#00F076"/>
</linearGradient>
<clipPath id="clip0_1440_1242">
<rect width="168.75" height="50" fill="white" transform="translate(0 0.563965)"/>
</clipPath>
</defs>
</svg>
